# xmcd
#
# Track frame offsets:
#	150
#	5248
#	20410
#	40185
#	68918
#	85593
#	105533
#	118595
#	141810
#	156440
#	176478
#	201158
#	220555
#	233855
#
# Disc length: 3517 seconds
# Revision: 1
# Processed by: cddbd v1.5.2PL0 Copyright (c) Steve Scherf et al.
# Submitted via: dBpowerAMP V12.0
#
DISCID=b90dbb0e
DTITLE=Lou Reed - Magic And Loss
DYEAR=1992
DGENRE=Ro
TTITLE0=Dorita
TTITLE1=What's Good
TTITLE2=Power And Glory
TTITLE3=Magician
TTITLE4=Sword Of Damocles
TTITLE5=Goodby Mass
TTITLE6=Cremation
TTITLE7=Dreamin'
TTITLE8=No Chance
TTITLE9=Warrior King
TTITLE10=Harry's Circumcision
TTITLE11=Gassed And Stoked
TTITLE12=Power And Glory, Part 2
TTITLE13=Magic And Loss
EXTD=
EXTT0=
EXTT1=
EXTT2=
EXTT3=
EXTT4=
EXTT5=
EXTT6=
EXTT7=
EXTT8=
EXTT9=
EXTT10=
EXTT11=
EXTT12=
EXTT13=
PLAYORDER=
